<svg width="88" height="40" viewBox="0 0 88 40" fill="none" xmlns="http://www.w3.org/2000/svg">
<path fill-rule="evenodd" clip-rule="evenodd" d="M23.2417 0C21.8303 0 20.6862 1.14416 20.6862 2.55556V6.03833C20.6858 6.1711 20.6858 6.30388 20.6862 6.43661V11.7974C17.7585 9.889 14.0267 9.54879 10.5792 9.83881C6.94213 10.3343 3.58249 12.5365 1.74953 15.7424C-2.12568 21.9673 0.640606 31.6813 8.03341 33.8485C15.0445 36.4627 23.9881 32.9132 25.4811 25.1987C25.6253 24.6334 25.7237 24.0577 25.7753 23.4768C25.7819 23.1659 25.788 22.8549 25.7939 22.5439L25.7973 22.5471V22.362C25.8993 16.8145 25.8943 11.2637 25.8146 5.71511C25.8111 5.47294 25.8101 5.22999 25.809 4.9884C25.8075 4.6398 25.806 4.29404 25.7973 3.95759V2.55556C25.7973 1.14416 24.6531 0 23.2417 0ZM15.5818 14.5264C18.7161 15.4919 21.2883 18.2031 20.9933 21.6158C21.2202 27.3588 16.2834 31.1174 10.7291 29.8004C5.48522 28.6265 3.75729 21.7971 6.54843 17.6464C8.41748 14.765 12.3512 13.6205 15.5818 14.5264Z" fill="white"/>
<path d="M76.9815 32.4249C69.5887 37.8481 59.3326 33.0985 57.2126 24.6157C54.666 13.3223 67.8672 4.34877 77.3303 11.602C81.9472 15.0513 83.9454 21.5665 81.483 26.8012C81.2841 27.2315 81.074 27.6888 80.8327 28.096C80.5649 28.5605 80.2193 28.8022 80.7926 29.2007C82.9695 31.3767 85.1224 33.5797 87.2922 35.7628C88.9415 37.3741 87.4942 40.3247 85.1617 39.9708C83.8973 39.7728 83.1772 38.5766 82.2944 37.771C80.5152 35.9974 78.7792 34.1786 76.9815 32.4249ZM69.7002 13.8615C64.077 13.7215 60.1096 19.8144 62.426 24.8631C64.5052 29.6039 70.765 31.1301 74.7461 27.7731C80.4278 23.1523 77.0938 13.7009 69.7002 13.8615Z" fill="white"/>
<path d="M41.5333 9.01906C50.6292 8.92282 57.3116 19.2341 53.0467 27.2794C48.4996 36.6999 36.1491 37.2018 30.5155 28.4915C24.9092 20.2083 31.6252 8.86874 41.5333 9.01906ZM33.7108 21.6566H33.7204C33.5079 27.7765 40.236 32.3496 45.6146 28.6736C50.6356 25.3333 50.2363 17.1718 44.8545 14.3962C39.5889 11.747 33.6899 16.025 33.7108 21.6566Z" fill="white"/>
</svg>
